<svg version="1.2" xmlns="http://www.w3.org/2000/svg" viewBox="0 0 800 200" width="55" height="11">
	<title>header_logo</title>
	<style>
		.s0 { fill: #000000 } 
	</style>
	<path id="TARKIN LABS" class="s0" aria-label="TARKIN LABS"  d="m156 77.9l-1-14.2h-57.5l-1 14.1h21.5v58.2h16.7v-58.1zm57.2 58.1l-21.9-72.3h-22.1l-21.9 72.3h18l4-15.5 21.3 0.1 3.9 15.4zm-26.2-29.6h-14.1l7.1-27.7zm81.4-37.5c-4-3.5-9.8-5.3-17.4-5.3h-32v72.4h16.6v-29.5l4.7 0.1 14.9 29.4h21.2l-19.9-30.1c11.9-2.4 17.8-9.5 17.8-21.3 0-7-2-12.3-5.9-15.7zm-21.2 25.6h-11.6v-16.8h11.6c3.4 0 5.9 0.7 7.5 2 1.5 1.3 2.3 3.3 2.3 6 0 3-0.8 5.2-2.3 6.6-1.6 1.5-4.1 2.2-7.5 2.2zm51.8 41.5v-72.4h-16.6v72.4zm18.9-72.4l-17.9 30.6 20.1 41.8h20.4l-22.8-42.3 21.6-30.1zm44.5 72.4v-72.4h-16.7v72.4zm52-27.4l-25.2-45h-16.3v72.4h16.6l-0.2-44.7 25.4 44.7h16.2v-72.4h-16.7zm63.2 12.7v-57.6h-16.6v72.3h47l1.2-14.7zm99.1 14.7l-21.8-72.3h-22.2l-21.9 72.3h18.1l4-15.4 21.2 0.1 3.9 15.3zm-26.1-29.5h-14.2l7.1-27.7zm80-39c-3.8-2.6-9.3-3.8-16.7-3.8h-31.3v72.3h16.7v-0.1l13.4 0.1c9 0 15.7-1.7 20.2-5.2 4.4-3.5 6.7-9 6.7-16.5 0-5.8-1.7-10.1-5.1-12.9-3.4-2.9-8.5-4.6-15.2-5.1 5.3-1.1 9.5-3.1 12.5-5.8 3-2.8 4.5-6.5 4.5-10.9 0-5.6-1.9-9.6-5.7-12.1zm-19.7 53.7h-11.6v-18.1h11.7c7.2 0 10.8 2.9 10.8 8.7 0 3.3-0.9 5.7-2.7 7.2-1.8 1.5-4.6 2.2-8.2 2.2zm-1.1-29.5h-10.5v-13.9l10.6 0.1c3.1 0 5.4 0.4 6.8 1.4 1.5 0.9 2.2 2.5 2.2 4.8 0 5.1-3 7.6-9.1 7.6zm73 19.5c1.1 1.1 1.6 2.4 1.6 3.9 0 4.7-4.3 7.1-12.8 7.1-4.5 0-9.1-0.8-13.9-2.5-4.8-1.6-9-3.8-12.6-6.6l-1 15.2c3.5 2.8 7.7 4.9 12.7 6.4 4.9 1.5 10.2 2.3 15.8 2.3 9.5 0 16.9-2 22.2-6.1 5.3-4 8-9.7 8-17 0-6.1-2-10.9-5.9-14.3-4-3.5-10.2-6.4-18.6-8.7-5.3-1.4-9-2.7-11.1-3.8-2.1-1.1-3.1-2.6-3.1-4.6 0-3.9 3.5-5.8 10.6-5.8 4.3 0 8.7 0.7 13.1 2.1 4.5 1.4 8.2 3.2 11.1 5.4l1.1-14.9c-7-4.4-15.6-6.6-25.8-6.6-9 0-16 1.9-21.1 5.6-5.1 3.7-7.6 8.7-7.6 15.2 0 5.6 1.8 10.1 5.5 13.6 3.7 3.4 9 6.1 16 8 4.6 1.2 8.2 2.2 10.6 3.1 2.4 0.9 4.1 1.9 5.2 3z"/>
</svg>